<svg xmlns="http://www.w3.org/2000/svg" width="280" height="280" viewBox="0 0 280 280" role="img" aria-label="QR demo">
  <rect width="280" height="280" fill="#ffffff"/>
  <rect x="10" y="10" width="80" height="80" fill="#111827"/>
  <rect x="22" y="22" width="56" height="56" fill="#ffffff"/>
  <rect x="34" y="34" width="32" height="32" fill="#111827"/>

  <rect x="190" y="10" width="80" height="80" fill="#111827"/>
  <rect x="202" y="22" width="56" height="56" fill="#ffffff"/>
  <rect x="214" y="34" width="32" height="32" fill="#111827"/>

  <rect x="10" y="190" width="80" height="80" fill="#111827"/>
  <rect x="22" y="202" width="56" height="56" fill="#ffffff"/>
  <rect x="34" y="214" width="32" height="32" fill="#111827"/>

  <rect x="110" y="110" width="12" height="12" fill="#111827"/>
  <rect x="134" y="110" width="12" height="12" fill="#111827"/>
  <rect x="158" y="110" width="12" height="12" fill="#111827"/>
  <rect x="182" y="110" width="12" height="12" fill="#111827"/>

  <rect x="110" y="134" width="12" height="12" fill="#111827"/>
  <rect x="122" y="146" width="12" height="12" fill="#111827"/>
  <rect x="146" y="134" width="12" height="12" fill="#111827"/>
  <rect x="170" y="134" width="12" height="12" fill="#111827"/>
  <rect x="182" y="146" width="12" height="12" fill="#111827"/>

  <rect x="110" y="170" width="12" height="12" fill="#111827"/>
  <rect x="134" y="170" width="12" height="12" fill="#111827"/>
  <rect x="146" y="182" width="12" height="12" fill="#111827"/>
  <rect x="170" y="170" width="12" height="12" fill="#111827"/>

  <rect x="98" y="206" width="12" height="12" fill="#111827"/>
  <rect x="122" y="206" width="12" height="12" fill="#111827"/>
  <rect x="146" y="206" width="12" height="12" fill="#111827"/>
  <rect x="170" y="206" width="12" height="12" fill="#111827"/>
  <rect x="194" y="206" width="12" height="12" fill="#111827"/>

  <rect x="98" y="230" width="12" height="12" fill="#111827"/>
  <rect x="134" y="230" width="12" height="12" fill="#111827"/>
  <rect x="158" y="230" width="12" height="12" fill="#111827"/>
  <rect x="194" y="230" width="12" height="12" fill="#111827"/>

  <text x="140" y="272" text-anchor="middle" font-size="12" font-family="Arial, sans-serif" fill="#4b5563">QR thanh toan demo</text>
</svg>
